<svg width="1000" height="1000" viewBox="0 0 1000 1000" fill="none" xmlns="http://www.w3.org/2000/svg">
<mask id="path-1-inside-1_22_28" fill="white">
<path d="M0 32C0 14.3269 14.3269 0 32 0H968C985.673 0 1000 14.3269 1000 32V872C1000 942.692 942.692 1000 872 1000H32C14.3269 1000 0 985.673 0 968V32Z"/>
</mask>
<path d="M0 32C0 14.3269 14.3269 0 32 0H968C985.673 0 1000 14.3269 1000 32V872C1000 942.692 942.692 1000 872 1000H32C14.3269 1000 0 985.673 0 968V32Z" stroke="black" stroke-width="80" mask="url(#path-1-inside-1_22_28)"/>
<path d="M130.656 269V169.16C130.656 157.256 133.792 148.232 140.064 142.088C146.464 135.816 156.256 132.68 169.44 132.68H195.168V158.984H179.04C175.072 158.984 172.256 159.944 170.592 161.864C168.928 163.656 168.096 166.6 168.096 170.696V269H130.656ZM114.912 198.152V171.848H193.632V198.152H114.912ZM256.083 271.304C244.819 271.304 234.963 269.064 226.515 264.584C218.195 260.104 211.667 253.832 206.931 245.768C202.323 237.576 200.019 228.04 200.019 217.16C200.019 206.28 202.323 196.808 206.931 188.744C211.667 180.68 218.195 174.408 226.515 169.928C234.963 165.32 244.819 163.016 256.083 163.016C267.347 163.016 277.139 165.32 285.459 169.928C293.907 174.408 300.435 180.68 305.043 188.744C309.779 196.808 312.147 206.28 312.147 217.16C312.147 228.04 309.779 237.576 305.043 245.768C300.435 253.832 293.907 260.104 285.459 264.584C277.139 269.064 267.347 271.304 256.083 271.304ZM256.083 244.616C261.843 244.616 266.259 242.248 269.331 237.512C272.403 232.776 273.939 225.992 273.939 217.16C273.939 208.456 272.403 201.736 269.331 197C266.259 192.136 261.843 189.704 256.083 189.704C250.323 189.704 245.907 192.136 242.835 197C239.763 201.736 238.227 208.456 238.227 217.16C238.227 225.992 239.763 232.776 242.835 237.512C245.907 242.248 250.323 244.616 256.083 244.616ZM327.252 269V165.32H363.348L364.5 197.96L361.812 197.576C363.732 186.056 366.804 177.8 371.028 172.808C375.252 167.816 381.204 165.32 388.884 165.32H397.716V194.888H388.5C382.996 194.888 378.452 195.464 374.868 196.616C371.412 197.64 368.788 199.496 366.996 202.184C365.332 204.872 364.5 208.648 364.5 213.512V269H327.252ZM410.69 269V165.32H444.098L445.25 189.512L442.562 187.976C443.97 182.6 446.082 178.056 448.898 174.344C451.842 170.632 455.298 167.816 459.266 165.896C463.362 163.976 467.778 163.016 472.514 163.016C480.962 163.016 487.746 165.576 492.866 170.696C497.986 175.688 501.314 182.344 502.85 190.664L499.01 191.048C500.29 184.904 502.402 179.784 505.346 175.688C508.29 171.464 511.81 168.328 515.906 166.28C520.13 164.104 524.738 163.016 529.73 163.016C536.642 163.016 542.722 164.488 547.97 167.432C553.218 170.376 557.314 174.792 560.258 180.68C563.33 186.44 564.866 193.672 564.866 202.376V269H527.618V213.32C527.618 206.024 526.722 200.584 524.93 197C523.266 193.416 520.258 191.624 515.906 191.624C513.218 191.624 510.978 192.456 509.186 194.12C507.522 195.784 506.242 198.28 505.346 201.608C504.45 204.808 504.002 208.712 504.002 213.32V269H471.362V213.32C471.362 206.024 470.53 200.584 468.866 197C467.202 193.416 464.194 191.624 459.842 191.624C457.154 191.624 454.914 192.456 453.122 194.12C451.458 195.784 450.177 198.28 449.281 201.608C448.385 204.808 447.938 208.712 447.938 213.32V269H410.69Z" fill="black"/>
</svg>
